<svg width="1698" height="1698" viewBox="0 0 1698 1698" fill="none" xmlns="http://www.w3.org/2000/svg">
<path d="M609 1088V1244.27C609 1244.61 608.911 1244.95 608.741 1245.25L588.259 1281.44C588.089 1281.74 588 1282.08 588 1282.43V1334.95M588 1334.95L576.35 1351.95C576.122 1352.28 576 1352.68 576 1353.08V1370.23M588 1334.95V1406.5M729 1088V1313M729 1313V1388M729 1313L746.065 1334.45C746.347 1334.81 746.5 1335.25 746.5 1335.7V1403M849 1360.99V1088M849 1360.99L824.347 1397.15C824.121 1397.48 824 1397.87 824 1398.27V1633.97M849 1360.99V1597.74M849 1597.74V1698M849 1597.74L865.861 1613.41C866.269 1613.79 866.5 1614.32 866.5 1614.87V1679M1029 1088V1349.91C1029 1350.3 1029.11 1350.67 1029.32 1350.99L1045.5 1376.25M1062 1507V1402.59C1062 1402.2 1061.89 1401.83 1061.68 1401.51L1045.5 1376.25M1045.5 1376.25V1455.38M1045.5 1455.38V1534.5M1045.5 1455.38L1036.15 1463.91C1035.74 1464.28 1035.5 1464.82 1035.5 1465.38V1493M669 1088V1315.35C669 1315.85 668.818 1316.32 668.489 1316.69L657 1329.5M645 1415.72V1343.76C645 1343.27 645.181 1342.8 645.506 1342.43L657 1329.5M645 1415.72L659.67 1438C659.885 1438.33 660 1438.71 660 1439.1V1648.5M645 1415.72V1441.94C645 1442.22 644.941 1442.49 644.828 1442.75L636.672 1461.11C636.559 1461.37 636.5 1461.64 636.5 1461.92V1521M657 1329.5L670.961 1344.42C671.307 1344.79 671.5 1345.28 671.5 1345.79V1371M789 1439.75V1594M789 1439.75L767.861 1469.98C767.626 1470.32 767.5 1470.72 767.5 1471.13V1530.5M789 1439.75V1293.19M767.5 1530.5V1637M767.5 1530.5L740.483 1561.94C740.171 1562.3 740 1562.76 740 1563.24V1657M789 1088V1293.19M789 1293.19L801.271 1316.56C801.421 1316.85 801.5 1317.17 801.5 1317.49V1348M969 1088V1401.98C969 1402.32 969.087 1402.66 969.253 1402.95L1000.25 1458.55C1000.41 1458.84 1000.5 1459.18 1000.5 1459.52V1562M909 1439.75L936.262 1490.56C936.418 1490.85 936.5 1491.17 936.5 1491.5V1538M909 1439.75L884.696 1490.59C884.567 1490.86 884.5 1491.15 884.5 1491.45V1506.38M909 1439.75V1322.5M909 1322.5L923.518 1339.44C923.829 1339.8 924 1340.26 924 1340.74V1367M909 1322.5V1088M936.5 1538L948.611 1554.47C948.864 1554.81 949 1555.23 949 1555.66V1588.5M936.5 1538L922.478 1554.44C922.17 1554.8 922 1555.26 922 1555.74V1602M936.5 1538V1614M884.5 1614V1506.38M884.5 1506.38L892.961 1515.42C893.307 1515.79 893.5 1516.28 893.5 1516.79V1534M1089 1088V1285.03C1089 1285.41 1089.11 1285.78 1089.31 1286.11L1113.69 1324.31C1113.89 1324.64 1114 1325.01 1114 1325.39V1361.15M1114 1361.15V1397.5M1114 1361.15L1101.35 1379.49C1101.12 1379.82 1101 1380.22 1101 1380.62V1455.5M1088 1089H1238L1273.5 1110H1375M1088 969H1313M1313 969H1388M1313 969L1335 951.5H1403M1360.99 849H1088M1360.99 849L1397.66 874H1633.97M1360.99 849H1597.74M1597.74 849H1698M1597.74 849L1614 831.5H1679M1088 669H1350.5L1376.25 652.5M1507 636H1402L1376.25 652.5M1376.25 652.5H1455.38M1455.38 652.5H1534.5M1455.38 652.5L1464.5 662.5H1493M1088 1029H1316.12L1362.44 1053H1415.72M1415.72 1053H1469M1415.72 1053L1450.5 1038H1648.5M1088 909H1439.75M1439.75 909H1594M1439.75 909L1470.5 930.5H1530.5M1530.5 930.5H1637M1530.5 930.5L1562.5 958H1657M1088 729H1402.5L1459 697.5H1562M1439.75 789L1491 761.5H1538M1439.75 789L1491 813.5H1506.38M1439.75 789H1322.5M1322.5 789L1340 774H1367M1322.5 789H1263.88M1088 789H1263.88M1263.88 789L1277.5 804.5H1310.5M1538 761.5L1555 749H1588.5M1538 761.5L1555 776H1602M1538 761.5H1614M1614 813.5H1506.38M1506.38 813.5L1516 804.5H1534M1088 609H1285.61L1324.81 584H1361.15M1361.15 584H1397.5M1361.15 584L1380 597H1455.5M323 588H424.5L460 609M460 609L448.75 620H406.5M460 609H610M610 729H349.286M349.286 729H262.381M349.286 729L323.794 746H245M337.013 849H610M337.013 849L300.344 824H64.0267M337.013 849H100.26M100.26 849H0M100.26 849L84 866.5H19M610 1029H347.5L321.75 1045.5M191 1062H296L321.75 1045.5M321.75 1045.5H242.625M242.625 1045.5H163.5M242.625 1045.5L233.5 1035.5H205M610 669H381.88L335.559 645H282.28M282.28 645H229M282.28 645L247.5 660H49.5M610 789H258.25M258.25 789H104M258.25 789L227.5 767.5H167.5M167.5 767.5H61M167.5 767.5L135.5 740H41M136 1000.5H239L295.5 969H541M541 969H610M541 969L504.5 994.5H450.5M258.25 909L207 936.5H160M258.25 909L207 884.5H191.625M258.25 909H375.5M375.5 909L358 924H331M375.5 909H434.125M610 909H434.125M434.125 909L420.5 893.5H387.5M160 936.5L143 949H109.5M160 936.5L143 922H96M160 936.5H84M84 884.5H191.625M191.625 884.5L182 893.5H164M610 1089H412.387L373.193 1114M373.193 1114H336.847M373.193 1114L357.5 1123H331M300.5 1114H336.847M336.847 1114L318 1101H242.5M1110 187V320.5L1089 341.92V468.5M1089 610V468.5M1089 468.5L1134 407.5V345.5M969 610V385M969 385L951.5 363V295M969 385V243.25M969 243.25V196M969 243.25L985 212V156.5M849 337.013V610M849 337.013L874 300.344V182.185M849 337.013V100.26M849 100.26V0M849 100.26L831.5 84V19M874 182.185L882.5 169V116M874 182.185V64.0267M669 610V347.5L652.5 321.75M636 191V296L652.5 321.75M652.5 321.75V242.625M652.5 242.625V163.5M652.5 242.625L662.5 233.5V205M1029 610V381.88L1053 335.559V282.28M1053 282.28V229M1053 282.28L1038 247.5V49.5M909 610V258.25M909 258.25V104M909 258.25L930.5 227.5V167.5M930.5 167.5V61M930.5 167.5L958 135.5V41M729 610V295.5L713.25 267.25M697.5 187.5V239L713.25 267.25M697.5 187.5V136M697.5 187.5L710.5 165.5V121M713.25 267.25V239L724 222.5V189.5M789 258.25L761.5 207V160M789 258.25L813.5 207V191.625M789 258.25V375.5M789 375.5L774 358V331M789 375.5V434.125M789 610V434.125M789 434.125L804.5 420.5V387.5M761.5 160L749 143V109.5M761.5 160L784 133V98.5M761.5 160V84M813.5 84V191.625M813.5 191.625L804.5 182V164M609 610V412.387L584 373.193V336.847M584 336.847V300.5M584 336.847L597 318V242.5" stroke="white" stroke-width="2"/>
</svg>
