<svg width="1893" height="1893" viewBox="0 0 1893 1893" fill="none" xmlns="http://www.w3.org/2000/svg">
<path d="M707 1186V1275.77C707 1276.29 706.795 1276.79 706.429 1277.16L686.572 1297.44C686.205 1297.81 686 1298.31 686 1298.84V1328.67M686 1328.67L674.711 1338.18C674.26 1338.56 674 1339.12 674 1339.71V1349.05M686 1328.67V1370M827 1186V1411M827 1411V1486M827 1411L844.065 1432.45C844.347 1432.81 844.5 1433.25 844.5 1433.7V1501M946.706 1490.31V1186M946.706 1490.31L922.289 1530.71C922.1 1531.03 922 1531.38 922 1531.75V1836.63M946.706 1490.31V1754.23M946.706 1754.23V1893M946.706 1754.23L963.447 1771.78C963.802 1772.15 964 1772.65 964 1773.16V1853.82M1127 1186V1447.91C1127 1448.3 1127.11 1448.67 1127.32 1448.99L1143.5 1474.25M1160 1605V1500.59C1160 1500.2 1159.89 1499.83 1159.68 1499.51L1143.5 1474.25M1143.5 1474.25V1553.38M1143.5 1553.38V1632.5M1143.5 1553.38L1134.15 1561.91C1133.74 1562.28 1133.5 1562.82 1133.5 1563.38V1591M766.5 1186V1373.97C766.5 1374.53 766.267 1375.06 765.857 1375.44L754.5 1385.92M742.5 1457.3V1397.97C742.5 1397.41 742.732 1396.88 743.139 1396.5L754.5 1385.92M742.5 1457.3L757.066 1475.61C757.347 1475.96 757.5 1476.4 757.5 1476.85V1650M742.5 1457.3V1478.85C742.5 1479.18 742.419 1479.5 742.263 1479.79L734.238 1494.75C734.082 1495.04 734 1495.37 734 1495.7V1544.45M754.5 1385.92L768.326 1398.16C768.755 1398.54 769 1399.08 769 1399.65V1420.28M887 1537.75V1692M887 1537.75L865.861 1567.98C865.626 1568.32 865.5 1568.72 865.5 1569.13V1628.5M887 1537.75V1391.19M865.5 1628.5V1735M865.5 1628.5L838.483 1659.94C838.172 1660.3 838 1660.76 838 1661.24V1755M887 1186V1391.19M887 1391.19L899.271 1414.56C899.422 1414.85 899.5 1415.17 899.5 1415.49V1446M1067 1186V1499.98C1067 1500.32 1067.09 1500.66 1067.25 1500.95L1098.25 1556.55C1098.41 1556.84 1098.5 1557.18 1098.5 1557.52V1660M1006.69 1564.5L1034.01 1601.47C1034.27 1601.81 1034.4 1602.23 1034.4 1602.66V1705.3M1006.69 1564.5L982.33 1601.5C982.115 1601.83 982 1602.21 982 1602.6V1668.8M1006.69 1564.5V1456.61M1006.69 1456.61L1021.41 1476.27C1021.67 1476.62 1021.81 1477.04 1021.81 1477.47V1507.96M1006.69 1456.61V1186M1034.4 1705.3L1046.68 1724.42C1046.89 1724.74 1047 1725.12 1047 1725.5V1763.57M1034.4 1705.3L1020.19 1724.38C1019.93 1724.73 1019.79 1725.15 1019.79 1725.58V1779.15M1034.4 1705.3V1793M982 1793V1668.8M982 1668.8L990.619 1679.36C990.911 1679.71 995.07 1684.54 995.07 1685V1725.68M1187 1186V1294.24C1187 1294.82 1187.25 1295.38 1187.69 1295.76L1211.31 1316.21C1211.75 1316.59 1212 1317.14 1212 1317.72V1336.88M1212 1336.88V1356.96M1212 1336.88L1199.75 1346.69C1199.28 1347.07 1199 1347.65 1199 1348.26V1389M1186 1187H1374.68L1419.33 1208H1472.5M1527 1197.5L1530.5 1208H1540.5M1527 1197.5L1523.5 1187L1519.75 1197.5M1527 1197.5H1519.75M1519.75 1197.5L1516 1208H1496M1540.5 1208V1184M1540.5 1208H1560.5M1560.5 1208L1570 1184.5M1560.5 1208L1552 1184.5M1560.5 1208H1580M1580 1208H1592.17V1186.88L1607 1208M1580 1208V1189.5M1607 1208V1184M1607 1208H1628.66L1641.58 1198.75H1676.5M1580 1184V1186.88M1472.5 1208V1187H1491V1191M1472.5 1208H1491M1491 1208V1199H1485M1491 1208H1496M1496 1205V1208M1186 1067H1448.86M1448.86 1067L1474.56 1050H1554M1448.86 1067H1492.67M1492.67 1067H1536.48M1492.67 1067L1507.5 1086H1642M1505.08 947.294H1186M1505.08 947.294L1547.94 972H1774M1505.08 947.294H1781.81M1781.81 947.294H1893M1781.81 947.294L1800.82 930H1876.79M1774 972H1824.16M1774 972L1788.5 983H1845.5M1186 767H1448.5L1474.25 750.5M1605 734H1500L1474.25 750.5M1474.25 750.5H1553.38M1553.38 750.5H1632.5M1553.38 750.5L1562.5 760.5H1591M1186 1127H1385.43L1425.92 1151H1472.5M1472.5 1151H1519.08M1472.5 1151L1502.9 1136H1676M1186 1007H1544.55M1544.55 1007H1701.78M1544.55 1007L1575.89 1028.5H1637.05M1637.05 1028.5H1745.61M1637.05 1028.5L1669.67 1056H1766M1186 827H1434.42M1434.42 827L1445.5 817H1475M1434.42 827H1522.4L1582.83 796H1637.91M1637.91 796H1693M1637.91 796L1651.5 807H1707M1628.7 887.31L1693.2 859.597H1752.35M1628.7 887.31L1693.2 912H1712.55M1628.7 887.31H1481.13M1481.13 887.31L1503.16 872.194H1537.14M1481.13 887.31H1407.35M1186 887.31H1407.35M1407.35 887.31L1424.5 902.93H1466.03M1752.35 859.597L1773.75 847H1815.91M1752.35 859.597L1773.75 874.209H1832.9M1752.35 859.597H1848M1848 912H1712.55M1712.55 912L1724.66 902.93H1747.32M1186 707H1383.61L1422.81 682H1459.15M1459.15 682H1495.5M1459.15 682L1478 695H1553.5M448 686H561.92L594.08 707M594.08 707L561.92 718M594.08 707H708M561.92 718H401.5M561.92 718L536.5 736.75H499.5M708 827H447.286M447.286 827L421.794 856H343M447.286 827H397.965M397.965 827H250M397.965 827L370 801H225M298.412 946.518L253.626 922H41.1969M298.412 946.518H105.308M298.412 946.518H503.206M105.308 946.518L0 946.5M105.308 946.518L85.449 963.68H14.0003M503.206 946.518H708M503.206 946.518L470.149 968H374.739M708 1127H445.5L419.75 1143.5M289 1160H394L419.75 1143.5M419.75 1143.5H340.625M340.625 1143.5H261.5M340.625 1143.5L331.5 1133.5H303M708 767H491.479L447.514 743H396.944M396.944 743H346.373M396.944 743L363.932 758H176M708 887H306.177M306.177 887H37.0003M306.177 887L271.049 865.5H202.508M202.508 865.5H80.8474M202.508 865.5L165.953 838H58.0003M206 1099H315.085L374.922 1067H634.924M634.924 1067H708M634.924 1067L596.268 1092.9H539.078M296.065 1007.31L236.046 1034.6H181.004M296.065 1007.31L236.046 983H218.04M296.065 1007.31H433.377M433.377 1007.31L412.882 1022.19H381.263M433.377 1007.31H502.033M708 1007.31H502.033M502.033 1007.31L486.076 991.93H447.43M181.004 1034.6L161.095 1047H121.863M181.004 1034.6L161.095 1020.21H106.054M181.004 1034.6H92.0003M92.0003 983H218.04M218.04 983L206.768 991.93H185.689M708 1187H544.532L512.111 1212M512.111 1212H482.045M512.111 1212L499.13 1221H477.208M451.979 1212H482.045M482.045 1212L466.455 1199H404M1208 285V418.5L1187 439.92V566.5M1187 708V566.5M1187 566.5L1232 505.5V443.5M1067 708V483M1067 483L1049.5 461V393M1067 483V341.25M1067 341.25V294M1067 341.25L1083 310V254.5M947.5 379.073V708M947.5 379.073L972.5 334.889V192.518M947.5 379.073V93.8051M947.5 93.8051V0M947.5 93.8051L930 74.2131V13M972.5 192.518L981 176.631V112.77M972.5 192.518V50.1469M767 708V420.514L750.5 392.313M734 249.118V364.112L750.5 392.313M750.5 392.313V305.656M750.5 305.656V219M750.5 305.656L760.5 295.663V264.45M1127 708V469.908L1151 421.563V365.955M1151 365.955V310.346M1151 365.955L1136 329.655V123M1007 708V324.104M1007 324.104V155.757M1007 324.104L1028.5 290.544V225.061M1028.5 225.061V108.828M1028.5 225.061L1056 190.136V87M827 708V362.629L811.5 331.606M796 244.028V300.583L811.5 331.606M796 244.028V187.472M796 244.028L808.794 219.868V171M811.5 331.606V300.583L822.08 282.463V246.224M887.31 292.721L859.597 232.215V176.726M887.31 292.721L912 232.215V214.063M887.31 292.721V431.147M887.31 431.147L872.194 410.487V378.61M887.31 431.147V500.36M887.31 708V500.36M887.31 500.36L902.931 484.275V445.315M859.597 176.726L847 156.656V117.106M859.597 176.726L882.272 144.85V104.119M859.597 176.726V87M912 87V214.063M912 214.063L902.931 202.7V181.449M707 708V489.684L682 446.385V406.231M682 406.231V366.076M682 406.231L695 385.41V302M738.396 738.395H1155.6V1155.6H738.396V738.395ZM717 717H1177V1177H717V717Z" stroke="#FFC700" stroke-width="2"/>
</svg>
