<svg width="610" height="528" viewBox="0 0 610 528" fill="none" xmlns="http://www.w3.org/2000/svg">
<path d="M287 527H185.5L150 506H0" stroke="white" stroke-width="2"/>
<path d="M300 386H225M0 386L150 386L225 386M225 386L247 368.5H315" stroke="white" stroke-width="2"/>
<path d="M610 266H509.74M0 266L272.987 266M272.987 266H409.48L509.74 266M272.987 266L309.656 291L545.973 291M509.74 266L526 248.5H591" stroke="white" stroke-width="2"/>
<path d="M419 53L314 53L288.25 69.5M0 86L150 86L225 86L262.5 86L288.25 69.5M288.25 69.5L367.375 69.5M446.5 69.5L367.375 69.5M367.375 69.5L376.5 79.5H405" stroke="white" stroke-width="2"/>
<path d="M381 470H327.72M0 446L228.12 446L274.441 470H327.72M327.72 470L362.5 455L560.5 455" stroke="white" stroke-width="2"/>
<path d="M506 326L351.75 326M0 326L234.5 326H351.75M351.75 326L382.5 347.5L442.5 347.5M549 347.5H442.5M442.5 347.5L474.5 375H569" stroke="white" stroke-width="2"/>
<path d="M474 114.5L371 114.5L314.5 146L150 146L0 146" stroke="white" stroke-width="2"/>
<path d="M351.75 206L403 178.5L450 178.5M351.75 206L403 230.5H418.375M351.75 206L293.125 206H234.5M0 206H117.25L175.875 206M234.5 206L252 191H279M234.5 206H175.875M526 178.5H488H450M526 230.5H464.5L418.375 230.5M175.875 206L189.5 221.5H222.5M450 178.5L467 166H500.5M450 178.5L467 193H514M446 221.5L428 221.5L418.375 230.5" stroke="white" stroke-width="2"/>
<path d="M309.5 1L273.153 1M0 26L197.613 26L236.807 1L273.153 1M273.153 1L292 14L367.5 14" stroke="white" stroke-width="2"/>
</svg>
