<svg width="540" height="610" viewBox="0 0 540 610" fill="none" xmlns="http://www.w3.org/2000/svg">
<path d="M13 318.5L13 273.476L13 246.951M34 -1.15335e-05L34 156.268C34 156.613 33.9106 156.952 33.7406 157.253L13.2594 193.444C13.0894 193.745 13 194.084 13 194.429L13 246.951M13 246.951L1.35028 263.949C1.12211 264.282 1 264.676 1 265.08L1 282.23" stroke="white" stroke-width="2"/>
<path d="M154 300L154 225M154 1.87755e-05L154 150L154 225M154 225L171.065 246.453C171.347 246.807 171.5 247.246 171.5 247.698L171.5 315" stroke="white" stroke-width="2"/>
<path d="M274 610V509.74M274 3.63588e-05L274 272.987M274 272.987V409.48L274 509.74M274 272.987L249.348 309.147C249.121 309.479 249 309.871 249 310.273L249 545.973M274 509.74L290.861 525.407C291.269 525.785 291.5 526.316 291.5 526.872V591" stroke="white" stroke-width="2"/>
<path d="M487 419L487 314.586C487 314.203 486.89 313.829 486.684 313.507L470.5 288.25M454 2.66135e-05L454 150L454 225V261.914C454 262.297 454.11 262.671 454.316 262.993L470.5 288.25M470.5 288.25L470.5 367.375M470.5 446.5V367.375M470.5 367.375L461.152 375.905C460.737 376.284 460.5 376.82 460.5 377.383V405" stroke="white" stroke-width="2"/>
<path d="M61.5 433L61.5 373.924C61.5 373.644 61.5586 373.368 61.6721 373.112L69.8279 354.748C69.9414 354.492 70 354.216 70 353.936V327.72M94 3.34084e-05L94 227.355C94 227.848 93.818 228.323 93.4889 228.69L82 241.5M70 327.72L70 255.76C70 255.271 70.1805 254.797 70.506 254.431C74.8812 249.509 77.485 246.579 82 241.5M70 327.72L84.6704 349.999C84.8854 350.326 85 350.708 85 351.099L85 560.5M82 241.5L95.9605 256.423C96.3072 256.794 96.5 257.282 96.5 257.79L96.5 283" stroke="white" stroke-width="2"/>
<path d="M214 506L214 351.75M214 3.3915e-05V117.25L214 175.875V205.188M214 351.75V234.5L214 205.188M214 351.75L192.861 381.984C192.626 382.32 192.5 382.72 192.5 383.13V442.5M192.5 549L192.5 442.5M192.5 442.5L165.483 473.938C165.171 474.301 165 474.763 165 475.241L165 569M214 205.188L226.271 228.563C226.421 228.85 226.5 229.169 226.5 229.493V260" stroke="white" stroke-width="2"/>
<path d="M425.5 474L425.5 371.52C425.5 371.179 425.413 370.844 425.247 370.546L394.253 314.954C394.087 314.656 394 314.321 394 313.98L394 150L394 2.82526e-05" stroke="white" stroke-width="2"/>
<path d="M334 351.75L361.262 402.557C361.418 402.848 361.5 403.173 361.5 403.503V450M334 351.75L309.696 402.591C309.567 402.86 309.5 403.155 309.5 403.453V418.375M334 351.75V293.125V234.5M334 3.1352e-05V117.25L334 175.875V234.5M334 234.5L348.519 251.438C348.829 251.801 349 252.262 349 252.74V279M361.5 526V488V450M309.5 526V464.5V418.375M361.5 450L373.611 466.471C373.864 466.815 374 467.23 374 467.656V500.5M361.5 450L347.478 466.439C347.17 466.801 347 467.261 347 467.737V514M318.5 446V428.789C318.5 428.282 318.307 427.794 317.961 427.423L309.5 418.375" stroke="white" stroke-width="2"/>
<path d="M539 309.5V273.153M514 2.19047e-05L514 197.03C514 197.411 514.109 197.784 514.314 198.105L538.686 236.315C538.891 236.636 539 237.009 539 237.39V273.153M539 273.153L526.354 291.487C526.123 291.821 526 292.217 526 292.623V367.5" stroke="white" stroke-width="2"/>
</svg>
