<svg width="552" height="610" viewBox="0 0 552 610" fill="none" xmlns="http://www.w3.org/2000/svg">
<path d="M527 187V320.5L506 341.92V416.555V468.5M506 610L506 499.46V468.5M506 468.5L551 407.5V345.5" stroke="white" stroke-width="2"/>
<path d="M386 196V243.25M386 610L386 460V385M386 385L368.5 363L368.5 295M386 385V290.5L386 243.25M386 243.25L402 212V156.5" stroke="white" stroke-width="2"/>
<path d="M266 0V100.26M266 610V337.013M266 337.013L266 200.52V100.26M266 337.013L291 300.344L291 182.185M291 64.0267V123.106V182.185M266 100.26L248.5 84V19M291 182.185L299.5 169V116" stroke="white" stroke-width="2"/>
<path d="M53 191L53 296L69.5 321.75M86 610L86 460L86 385L86 347.5L69.5 321.75M69.5 321.75L69.5 242.625M69.5 163.5L69.5 242.625M69.5 242.625L79.5 233.5V205" stroke="white" stroke-width="2"/>
<path d="M470 229V282.28M446 610L446 381.88L470 335.559V282.28M470 282.28L455 247.5L455 49.5" stroke="white" stroke-width="2"/>
<path d="M326 104V258.25M326 610V375.5L326 258.25M326 258.25L347.5 227.5V167.5M347.5 61V167.5M347.5 167.5L375 135.5V41" stroke="white" stroke-width="2"/>
<path d="M114.5 136L114.5 187.5M146 610L146 460L146 295.5L130.25 267.25M114.5 187.5L114.5 239L130.25 267.25M114.5 187.5L127.5 165.5L127.5 121M130.25 267.25V239L141 222.5V189.5" stroke="white" stroke-width="2"/>
<path d="M206 258.25L178.5 207V160M206 258.25L230.5 207L230.5 191.625M206 258.25V316.875V375.5M206 610V492.75V434.125M206 375.5L191 358V331M206 375.5L206 434.125M178.5 84V122V160M230.5 84V145.5V191.625M206 434.125L221.5 420.5V387.5M178.5 160L166 143V109.5M178.5 160L201 133V98.5M221.5 164V182L230.5 191.625" stroke="white" stroke-width="2"/>
<path d="M1 300.5L1 336.847M26 610L26 412.387L1 373.193V336.847M1 336.847L14 318L14 242.5" stroke="white" stroke-width="2"/>
</svg>
