<svg width="610" height="537" viewBox="0 0 610 537" fill="none" xmlns="http://www.w3.org/2000/svg">
<path d="M323 1L424.5 1L442.25 11.5L451.125 16.75L460 22M610 22L535 22L460 22M460 22L448.75 33L406.5 33" stroke="white" stroke-width="2"/>
<path d="M262.381 142L349.286 142M610 142L436.19 142L349.286 142M349.286 142L323.794 159L245 159" stroke="white" stroke-width="2"/>
<path d="M0 262L100.26 262M610 262L337.013 262M337.013 262L200.52 262H100.26M337.013 262L300.344 237L64.0267 237M100.26 262L84 279.5H19" stroke="white" stroke-width="2"/>
<path d="M191 475L296 475L321.75 458.5M610 442L460 442H385L347.5 442L321.75 458.5M321.75 458.5H242.625M163.5 458.5L242.625 458.5M242.625 458.5L233.5 448.5H205" stroke="white" stroke-width="2"/>
<path d="M229 58L282.28 58M610 82L381.88 82L335.559 58L282.28 58M282.28 58L247.5 73L49.5 73" stroke="white" stroke-width="2"/>
<path d="M104 202L258.25 202M610 202L375.5 202L258.25 202M258.25 202L227.5 180.5L167.5 180.5M61 180.5L167.5 180.5M167.5 180.5L135.5 153L41 153" stroke="white" stroke-width="2"/>
<path d="M136 413.5L239 413.5L295.5 382L460 382L541 382M610 382H541M450.5 407.5L504.5 407.5L541 382" stroke="white" stroke-width="2"/>
<path d="M258.25 322L207 349.5L160 349.5M258.25 322L207 297.5H191.625M258.25 322H316.875L375.5 322M610 322L492.75 322H434.125M375.5 322L358 337L331 337M375.5 322H434.125M84 349.5H122H160M84 297.5H145.5L191.625 297.5M434.125 322L420.5 306.5H387.5M160 349.5L143 362H109.5M160 349.5L143 335H96M164 306.5L182 306.5L191.625 297.5" stroke="white" stroke-width="2"/>
<path d="M300.5 527H336.847M610 502L412.387 502L373.193 527M373.193 527H336.847M373.193 527L357.5 536H331M336.847 527L318 514H242.5" stroke="white" stroke-width="2"/>
</svg>
