<svg width="1420" height="604" viewBox="0 0 1420 604" fill="none" xmlns="http://www.w3.org/2000/svg">
<path d="M1382.43 271.61V465.513L1350.44 496.625V605.029V680.477M1350.44 886V725.445V680.477M1350.44 680.477L1419 591.877V501.825" stroke="white" stroke-opacity="0.58" stroke-width="2"/>
<path d="M1167.6 284.682V353.311M1167.6 886L1167.6 668.131V559.197M1167.6 559.197L1140.94 527.243V428.475M1167.6 559.197V421.939V353.311M1167.6 353.311L1191.98 307.921V227.31" stroke="white" stroke-opacity="0.58" stroke-width="2"/>
<path d="M984.764 0V145.624M984.764 886V489.498M984.764 489.498L984.764 291.247V145.624M984.764 489.498L1022.85 436.237L1022.85 264.616M1022.85 92.9962V178.806V264.616M984.764 145.624L958.1 122.007V27.5967M1022.85 264.616L1035.81 245.466V168.485" stroke="white" stroke-opacity="0.58" stroke-width="2"/>
<path d="M660.229 277.42V429.928L685.369 467.329M710.509 886V668.131V593.5M710.509 543V504.729L685.369 467.329M710.509 543L720 531.5V475.5M710.509 543V593.5M685.369 467.329V352.403M685.369 237.477V352.403M685.369 352.403L700.605 339.149V297.754M710.509 593.5L693 575V553.5" stroke="white" stroke-opacity="0.58" stroke-width="2"/>
<path d="M1295.59 332.613V410M1259.02 886V554.664L1295.59 487.386V410M1295.59 410L1272.73 359.484V71.8967" stroke="white" stroke-opacity="0.58" stroke-width="2"/>
<path d="M1076.18 151.056V375.097M1076.18 886V545.398V375.097M1076.18 375.097L1108.94 330.434V243.287M1108.94 88.6V243.287M1108.94 243.287L1150.84 196.808V59.5508" stroke="white" stroke-opacity="0.58" stroke-width="2"/>
<path d="M753.933 197.534V272.336M801.927 886L801.927 668.131V429.202L777.93 388.17M753.933 272.336V347.138L777.93 388.17M753.933 272.336L773.74 240.382V175.748M777.93 388.17V347.138L794.309 323.172V275.241" stroke="white" stroke-opacity="0.58" stroke-width="2"/>
<path d="M893.345 375.098L851.445 300.659V232.393M893.345 375.098L930.675 300.659V278.328M893.345 375.098V460.248V545.398M893.345 886V715.699V630.549M893.345 545.398L870.491 519.98V480.764M893.345 545.398L893.345 630.549M851.445 122.007V177.2V232.393M930.675 122.007V211.333V278.328M893.345 630.549L916.962 610.759V562.828M851.445 232.393L832.4 207.702V159.044M851.445 232.393L885.727 193.177V143.067M916.962 238.203V264.348L930.675 278.328" stroke="white" stroke-opacity="0.58" stroke-width="2"/>
<path d="M581 436.464V468.5V489.256M619.091 886V742.487V670.731V634.853V625.883M581 489.256L600.807 461.882V352.221M581 489.256V515.652V528.85M191 457.5H288.5M386 457.5H288.5M386 457.5H434.75H455.5M386 457.5L373.5 439.5H304.5M288.5 457.5L271.5 475.5H254.531M0 475.5H135.75H203.625H237.562H254.531M455.5 457.5L434.75 475.5H412M455.5 457.5L499 500H535L581 528.85M318 498L338 475.5H412M395 498L412 475.5M254.531 475.5L228.5 498M600.045 570.511L619.091 598.975V616.914V625.883M600.045 570.511L581 542.048V528.85M600.045 570.511L613 553.5V502M619.091 625.883L628.5 613L629 588.5M629 576.5V588.5M629 588.5L636.75 578.75V551.5" stroke="white" stroke-opacity="0.58" stroke-width="2"/>
</svg>
